<?xml version="1.0" encoding="UTF-8"?>
<svg id="Layer_1" xmlns="http://www.w3.org/2000/svg" version="1.1" viewBox="0 0 24 24">
  <!-- Generator: Adobe Illustrator 29.8.2, SVG Export Plug-In . SVG Version: 2.1.1 Build 3)  -->
  <path d="M11,21.6c-1.8,0-3.7-.8-5.1-2.1-2.7-2.7-2.7-7.2,0-9.9l5.7-5.7c1.9-1.9,5.1-2,7.1,0,1.9,1.9,1.9,5.1,0,7.1l-5.7,5.7c-1.2,1.2-3.1,1.2-4.2,0-.6-.6-.9-1.3-.9-2.1,0-1.2.3-1.6.9-2.1l3.5-3.5c.4-.4,1-.4,1.4,0s.4,1,0,1.4l-3.5,3.5c-.2.2-.3.4-.3.7s.1.5.3.7c.4.4,1,.4,1.4,0l5.7-5.7c1.2-1.2,1.2-3.1,0-4.2-1.2-1.2-3.1-1.2-4.2,0l-5.7,5.7c-1.9,1.9-1.9,5.1,0,7.1,1.9,1.9,5.1,1.9,7.1,0l3.5-3.5c.4-.4,1-.4,1.4,0s.4,1,0,1.4l-3.5,3.5c-1.4,1.4-3.2,2-4.9,2h0Z"/>
</svg>