<svg xmlns="http://www.w3.org/2000/svg" viewBox="0 0 24 24"><g transform="translate(3.3954 1) scale(1.047619)"><path d="M11 0c.6 0 1 .4 1 1v.2c1.1.4 2 1.5 2 2.8v7.89h-2V4c0-.6-.4-1-1-1H3c-.6 0-1 .4-1 1v15h4.05v2H1c-.6 0-1-.4-1-1V4c0-1.3.9-2.4 2-2.8V1c0-.6.4-1 1-1z"/><path d="M6 15H4v-2h2zM6 11H4V9h2zM10 11H8V9h2zM6 7H4V5h2zM10 7H8V5h2zM10 15H8v-2h2zM11.185 18.482l3.451-3.452.032-.031a1.056 1.056 0 0 1 1.474.031 1.057 1.057 0 0 1-.031 1.475l-4.189 4.19a1.04 1.04 0 0 1-1.474 0l-2.086-2.088-.032-.031a1.056 1.056 0 0 1 .032-1.475 1.056 1.056 0 0 1 1.474.032z"/></g></svg>
