<svg xmlns="http://www.w3.org/2000/svg" viewBox="0 0 24 24"><circle cx="8" cy="8" r="2"/><path fill="none" d="M19 4H5a1 1 0 0 0-1 1v14c0 .43.275.789.656.93l9.93-9.93c.756-.756 2.072-.756 2.828 0L20 12.586V5a1 1 0 0 0-1-1Z"/><path d="M19 2H5C3.346 2 2 3.346 2 5v14c0 1.654 1.346 3 3 3h8v-2H7.414L16 11.414 17.586 13H22V5c0-1.654-1.346-3-3-3Zm1 10.586L17.414 10c-.756-.756-2.072-.756-2.828 0l-9.93 9.93A.994.994 0 0 1 4 19V5a1 1 0 0 1 1-1h14a1 1 0 0 1 1 1v7.586Z"/><path d="m19.914 18.5 1.793-1.793a1 1 0 1 0-1.414-1.414L18.5 17.086l-1.793-1.793a1 1 0 1 0-1.414 1.414l1.793 1.793-1.793 1.793a1 1 0 1 0 1.414 1.414l1.793-1.793 1.793 1.793a.997.997 0 0 0 1.414 0 1 1 0 0 0 0-1.414L19.914 18.5Z"/></svg>