<svg xmlns="http://www.w3.org/2000/svg" viewBox="0 0 24 24"><path d="M16.896 10.558c-.335-.684-1.457-.684-1.792 0L9.66 21.579l1.794.886L13.165 19h5.67l1.71 3.465 1.795-.886-5.444-11.021ZM14.152 17 16 13.259 17.848 17h-3.696ZM11 13l1-.006-.012-2-1 .006c-.181-.004-.384-.006-.575-.021.092-.083.18-.167.269-.254C11.95 9.463 12.73 7.812 12.942 6H14V4H9.006V2h-2v2H2v2h8.923c-.197 1.271-.762 2.422-1.652 3.306a5.72 5.72 0 0 1-1.273.954 5.706 5.706 0 0 1-2.25-2.257l-.484-.875-1.751.966.483.876c.424.768.96 1.443 1.583 2.009a6.396 6.396 0 0 1-.567.021l-1-.006-.012 2L5 13c1.058-.013 2.06-.179 2.994-.537.914.351 1.91.537 2.952.537H11Z"/></svg>