<?xml version="1.0" encoding="UTF-8"?><svg id="aw" xmlns="http://www.w3.org/2000/svg" width="24" height="24" viewBox="0 0 24 24"><g id="bi"><path d="M19,12c0-.55273-.44727-1-1-1s-1,.44727-1,1c0,2.75684-2.24316,5-5,5s-5-2.24316-5-5c0-.55273-.44727-1-1-1s-1,.44727-1,1c0,3.51898,2.61377,6.43213,6,6.9201v1.0799h-2c-.55273,0-1,.44727-1,1s.44727,1,1,1h6c.55273,0,1-.44727,1-1s-.44727-1-1-1h-2v-1.0799c3.38623-.48798,6-3.40112,6-6.9201Z"/><path d="M12,16c2.20605,0,4-1.79395,4-4v-6c0-2.20605-1.79395-4-4-4s-4,1.79395-4,4v6c0,2.20605,1.79395,4,4,4ZM10,6c0-1.10254.89746-2,2-2s2,.89746,2,2v6c0,1.10254-.89746,2-2,2s-2-.89746-2-2v-6Z"/></g></svg>