<svg xmlns="http://www.w3.org/2000/svg" viewBox="0 0 24 24"><path d="M8 17a4.007 4.007 0 0 1 3.873 3H3.127A4.007 4.007 0 0 1 7 17h1m0-2H7a6 6 0 0 0-6 6 1 1 0 0 0 1 1h11a1 1 0 0 0 1-1 6 6 0 0 0-6-6ZM16.5 4c1.654 0 3 1.346 3 3s-1.346 3-3 3a2.978 2.978 0 0 1-2.01-.79 6.95 6.95 0 0 1-.405 2.142c.718.4 1.534.648 2.415.648a5 5 0 0 0 0-10 4.981 4.981 0 0 0-4.036 2.07 7.032 7.032 0 0 1 1.272 1.765A3.004 3.004 0 0 1 16.5 4ZM17 13h-1a5.968 5.968 0 0 0-3.687 1.273 8.045 8.045 0 0 1 1.584 1.34A3.96 3.96 0 0 1 16 15h1a4.007 4.007 0 0 1 3.873 3h-5.462c.256.63.432 1.302.52 2H22a1 1 0 0 0 1-1 6 6 0 0 0-6-6ZM7.5 6c1.654 0 3 1.346 3 3s-1.346 3-3 3-3-1.346-3-3 1.346-3 3-3m0-2a5 5 0 1 0 0 10 5 5 0 0 0 0-10Z"/></svg>