<svg xmlns="http://www.w3.org/2000/svg" viewBox="0 0 24 24"><path d="M14.085 11.352zM14 21a1 1 0 0 1-1 1H2a1 1 0 0 1-1-1 6 6 0 0 1 6-6h1a6 6 0 0 1 6 6M17 13h-1a5.97 5.97 0 0 0-3.687 1.273A8 8 0 0 1 15.931 20H22a1 1 0 0 0 1-1 6 6 0 0 0-6-6M16.5 2a4.98 4.98 0 0 0-4.036 2.07 7 7 0 0 1 1.272 1.765c.485.952.764 2.026.764 3.165 0 .071-.009.14-.01.21a7 7 0 0 1-.405 2.142c.718.4 1.534.648 2.415.648a5 5 0 0 0 0-10M12.333 7.781a5 5 0 0 0-.312-.886 5 5 0 0 0-.22-.404c-.07-.12-.134-.244-.214-.358a5 5 0 0 0-.68-.775 5 5 0 0 0-.566-.466c-.059-.041-.123-.075-.184-.113a5 5 0 0 0-.585-.318c-.066-.03-.129-.063-.196-.09a5 5 0 0 0-.789-.245q-.094-.02-.19-.035A5 5 0 0 0 7.5 4a5 5 0 0 0 0 10c.328 0 .646-.036.956-.096.11-.022.213-.06.32-.09.194-.05.385-.102.568-.175.129-.051.248-.116.37-.178.148-.073.294-.147.433-.234.131-.083.254-.175.377-.27a5 5 0 0 0 .323-.266 5 5 0 0 0 .587-.638 5 5 0 0 0 .327-.469c.049-.081.09-.166.136-.25.099-.187.193-.375.268-.575.024-.063.04-.13.06-.194A4.989 4.989 0 0 0 12.5 9c0-.31-.036-.61-.091-.904-.02-.108-.05-.21-.076-.315"/></svg>