<svg xmlns="http://www.w3.org/2000/svg" viewBox="0 0 24 24"><g transform="translate(3.0628 1) scale(0.997506)"><path d="M8.96 22.055a1 1 0 0 1-.446-.106C8.166 21.774 0 17.586 0 11.027V4.01c0-.419.258-.793.646-.94L8.61.064c.225-.084.474-.084.7 0l7.964 3.008c.388.146.645.52.645.939v7.017c0 6.56-8.166 10.747-8.514 10.922a1 1 0 0 1-.445.106M1.99 4.705v6.322c0 4.547 5.367 7.965 6.969 8.883 1.602-.918 6.968-4.336 6.968-8.883V4.705L8.96 2.073z"/><path d="M8.96 11.027c1.374 0 2.489-1.122 2.489-2.506s-1.115-2.506-2.49-2.506S6.472 7.137 6.472 8.52s1.114 2.506 2.489 2.506M10.287 12.03H7.632a2.664 2.664 0 0 0-2.654 2.673v.334h7.964v-.334a2.664 2.664 0 0 0-2.655-2.673"/></g></svg>
