<svg xmlns="http://www.w3.org/2000/svg" viewBox="0 0 24 24"><path d="M20 18a1 1 0 0 1-1 1H5a1 1 0 0 1-1-1V9a1 1 0 0 1 1-1h2a1 1 0 0 0 .832-.445l1.406-2.11A.997.997 0 0 1 10.07 5H13V3h-2.93a2.993 2.993 0 0 0-2.496 1.336L6.464 6H5C3.346 6 2 7.346 2 9v9c0 1.654 1.346 3 3 3h14c1.654 0 3-1.346 3-3v-7h-2v7Z"/><path d="M21 5h-2V3a1 1 0 1 0-2 0v2h-2a1 1 0 1 0 0 2h2v2a1 1 0 1 0 2 0V7h2a1 1 0 1 0 0-2ZM12 17c-2.206 0-4-1.794-4-4s1.794-4 4-4 4 1.794 4 4-1.794 4-4 4Zm0-6c-1.103 0-2 .897-2 2s.897 2 2 2 2-.897 2-2-.897-2-2-2Z"/></svg>