<svg xmlns="http://www.w3.org/2000/svg" viewBox="0 0 14.231 13.497"><path d="M6.517 7.12 8.637 5l.02-.02c.25-.24.65-.23.9.02.24.25.23.65-.02.9l-2.57 2.57c-.25.25-.65.25-.9 0l-1.28-1.28-.02-.02a.643.643 0 0 1 .02-.9c.25-.24.65-.23.9.02z"/><path fill="none" stroke="#000" stroke-width="1.5" d="M9.097.75c.5.3.91 1.2 1.48 1.39.47.28 1.05.56 1.56.78.4.22.22.93.29 1.29.04.76.41 1.33.79 1.96.15.34.41.44.16.87-.29.5-.47.68-.64 1-.4.75-.21 1.69-.5 2.4-.12.18-.33.2-.55.28-.8.24-1.56.75-2.01 1.38-.3.32-.38.6-.73.61-.9-.2-2.13-.53-3.06-.11-.3.06-.62.26-.85.06-.42-.42-.69-.94-1.18-1.31-.52-.44-1.33-.54-1.85-.92-.26-.41-.07-1.08-.24-1.61-.11-.8-.76-1.38-1-2.1.03-.22.25-.53.47-.89.32-.46.66-1.21.6-1.9-.02-.75.09-1.02.92-1.28.58-.24 1.2-.54 1.63-1.08.22-.24.55-.76.79-.8.55-.05 1.32.34 1.89.31.71.03 1.33-.3 1.98-.33z"/></svg>
