<svg xmlns="http://www.w3.org/2000/svg" viewBox="0 0 14.23 13.5"><path fill-rule="evenodd" d="M7.38.32c.72-.06,1.36-.47,1.94-.26.59.18.86.88,1.41,1.35.7.68,1.81.59,2.2,1.28.34.64.08,1.4.34,2.07.76,1.68,1.56,1.69.26,3.39-.77,1.03.14,2.86-1.48,3.25-.41.14-.86.3-1.23.59-.56.42-.77,1.03-1.32,1.35-.72.42-1.56-.26-2.52-.19-.7,0-1.35.48-2.04.33l-.1-.03h.01c-.58-.23-.81-.89-1.25-1.29-.72-.82-2.34-.61-2.46-1.87-.06-.44,0-.95-.14-1.44C.8,7.95-.07,7.4.02,6.63c.18-.89,1.09-1.52,1.08-2.5-.07-2.13.72-1.7,2.22-2.57.55-.35.81-1,1.33-1.37.84-.55,1.8.3,2.74.13Z M6.47,7.13l2.12-2.12.02-.02c.25-.24.65-.23.9.02.24.25.23.65-.02.9l-2.57,2.57c-.25.25-.65.25-.9,0l-1.28-1.28-.02-.02c-.24-.25-.23-.66.02-.9.25-.24.65-.23.9.02l.83.83Z"/></svg>
