<svg xmlns="http://www.w3.org/2000/svg" viewBox="0 0 24 24">
    <path d="M12.71 16.29a1.047 1.047 0 0 0-1.42 0 1 1 0 0 0-.21.33.8.8 0 0 0-.08.38.95.95 0 0 0 .29.7.96.96 0 0 0 .71.3 1 1 0 0 0 .38-.08 1 1 0 0 0 .33-.22.96.96 0 0 0 .29-.7 1 1 0 0 0-.08-.38 1 1 0 0 0-.21-.33"/>
    <path d="M16.286 2H7.714A2.76 2.76 0 0 0 5 4.8v14.4A2.76 2.76 0 0 0 7.714 22h8.572A2.76 2.76 0 0 0 19 19.2V4.8A2.76 2.76 0 0 0 16.286 2M17 19.2a.76.76 0 0 1-.714.8H7.714A.76.76 0 0 1 7 19.2V4.8a.76.76 0 0 1 .714-.8h8.572a.76.76 0 0 1 .714.8Z"/>
</svg>
