<svg xmlns="http://www.w3.org/2000/svg" viewBox="0 0 24 24"><defs><style>.cls-1{fill:none;}</style></defs><title>bookmark</title><g id="_09" data-name="09"><g id="bookmark"><rect id="artboard_guide" data-name="artboard guide" class="cls-1" width="24" height="24"/><g id="artwork-2" data-name="artwork"><path d="M18,4V20l0,0c-.78-.17-2.93-1.76-4.6-3.41A2,2,0,0,0,12,16a2,2,0,0,0-1.42.59C8.89,18.26,6.76,19.85,6,20l0,0V4H18m0-2H6A2,2,0,0,0,4,4V20a2.07,2.07,0,0,0,2,2c2,0,6-4,6-4s4,4,6,4a2.07,2.07,0,0,0,2-2V4a2,2,0,0,0-2-2Z"/></g></g></g></svg>