<svg xmlns="http://www.w3.org/2000/svg" viewBox="0 0 24 24"><defs><style>.cls-1,.cls-2{fill:none;}.cls-2{stroke:#000;stroke-linecap:round;stroke-linejoin:round;stroke-width:2px;}</style></defs><title>building</title><g id="_06" data-name="06"><g id="building"><rect id="artboard_guide" data-name="artboard guide" class="cls-1" width="24" height="24"/><g id="artwork-31" data-name="artwork"><path d="M17,4V20H7V4H17m0-2H7A2,2,0,0,0,5,4V22H19V4a2,2,0,0,0-2-2Z"/><rect x="10" y="18" width="4" height="2"/><line class="cls-2" x1="16" y1="2" x2="8" y2="2"/><rect x="9" y="6" width="2" height="2"/><rect x="13" y="6" width="2" height="2"/><rect x="9" y="10" width="2" height="2"/><rect x="13" y="10" width="2" height="2"/><rect x="9" y="14" width="2" height="2"/><rect x="13" y="14" width="2" height="2"/></g></g></g></svg>