<svg xmlns="http://www.w3.org/2000/svg" viewBox="0 0 24 24"><defs><style>.cls-1,.cls-2{fill:none;}.cls-2{stroke:#000;stroke-linecap:round;stroke-linejoin:round;stroke-width:2px;}</style></defs><title>calendar</title><g id="_04" data-name="04"><g id="calendar"><rect id="artboard_guide" data-name="artboard guide" class="cls-1" width="24" height="24"/><g id="artwork-49" data-name="artwork"><path d="M19.78,6a.41.41,0,0,1,.22.06V19.87a.89.89,0,0,1-.5.13H4.5a.89.89,0,0,1-.5-.13V6.06A.41.41,0,0,1,4.22,6H19.78m0-2H4.22A2.12,2.12,0,0,0,2,6V20a2.3,2.3,0,0,0,2.5,2h15A2.3,2.3,0,0,0,22,20V6a2.12,2.12,0,0,0-2.22-2Z"/><line class="cls-2" x1="8" y1="7" x2="8" y2="3"/><line class="cls-2" x1="16" y1="7" x2="16" y2="3"/><line class="cls-2" x1="20" y1="11" x2="4" y2="11"/></g></g></g></svg>