<svg xmlns="http://www.w3.org/2000/svg" viewBox="0 0 24 24"><defs><style>.cls-1{fill:none;}</style></defs><title>copy</title><g id="_03" data-name="03"><g id="dolly"><rect id="artboard_guide" data-name="artboard guide" class="cls-1" width="24" height="24"/><g id="artwork-61" data-name="artwork"><path d="M19,3H9A2,2,0,0,0,7,5V6H9V5H19V15H18v2h1a2,2,0,0,0,2-2V5A2,2,0,0,0,19,3Z"/><path d="M15,7H5a2,2,0,0,0-.82.18A2,2,0,0,0,3,9V19a2,2,0,0,0,2,2H15a2,2,0,0,0,1.82-1.18A2,2,0,0,0,17,19V9A2,2,0,0,0,15,7ZM5,9H15V19H5Z"/></g></g></g></svg>