<svg xmlns="http://www.w3.org/2000/svg" viewBox="0 0 24 24"><defs><style>.cls-1,.cls-2{fill:none;}.cls-2{stroke:#000;stroke-linecap:round;stroke-linejoin:round;stroke-width:2px;}</style></defs><title>critical</title><g id="_01" data-name="01"><g id="critical"><rect id="artboard_guide-3" data-name="artboard guide" class="cls-1" width="24" height="24"/><g id="critical-2" data-name="critical"><g id="Layer_19" data-name="Layer 19"><path d="M12,4a1.22,1.22,0,0,1,1,.71l8,13.56c.55.94.11,1.72-1,1.72H4c-1.1,0-1.54-.78-1-1.72L11,4.72A1.22,1.22,0,0,1,12,4m0-2a3.19,3.19,0,0,0-2.74,1.7l-8,13.55a3.16,3.16,0,0,0-.14,3.23A3.15,3.15,0,0,0,4,22H20a3,3,0,0,0,2.71-4.74l-8-13.55A3.19,3.19,0,0,0,12,2Z"/><circle cx="12" cy="17" r="1"/><line class="cls-2" x1="11.98" y1="9" x2="11.98" y2="13"/></g></g></g></g></svg>