<svg xmlns="http://www.w3.org/2000/svg" viewBox="0 0 24 24"><defs><style>.cls-1,.cls-2{fill:none;}.cls-2{stroke:#000;stroke-linecap:round;stroke-linejoin:round;stroke-width:2px;}</style></defs><title>documentReadTBD</title><g id="_04" data-name="04"><g id="documentRead"><rect id="artboard_guide" data-name="artboard guide" class="cls-1" width="24" height="24"/><g id="artwork-51" data-name="artwork"><path d="M6.16,3.87h0M13.49,4h0l.18.18L18,8V20H6V4.5A1.39,1.39,0,0,1,6.09,4h7.4m0-2H5.78C4.8,2,4,3.12,4,4.5V20a1.85,1.85,0,0,0,2,2H18a1.85,1.85,0,0,0,2-2V8a2.07,2.07,0,0,0-.49-1.32L15,2.68A2,2,0,0,0,13.49,2Z"/><polyline class="cls-2" points="18 8 14 8 14 4"/><line class="cls-2" x1="14" y1="12" x2="9" y2="12"/><line class="cls-2" x1="12" y1="16" x2="9" y2="16"/></g></g></g></svg>