<svg xmlns="http://www.w3.org/2000/svg" viewBox="0 0 24 24"><defs><style>.cls-1{fill:none;}</style></defs><title>home</title><g id="_09" data-name="09"><g id="home"><g id="artboard_guide_copy_7" data-name="artboard guide copy 7"><rect class="cls-1" width="24" height="24"/></g><g id="artwork"><path d="M12,5l6.93,5.94L19,11v8H15V16a2,2,0,0,0-2-2H11a2,2,0,0,0-2,2v3H5V11l.07-.06L12,5m0-2a2,2,0,0,0-1.23.42l-7,6A2,2,0,0,0,3,11v8a2,2,0,0,0,2,2h6V16h2v5h6a2,2,0,0,0,2-2V11a2,2,0,0,0-.77-1.58l-7-6A2,2,0,0,0,12,3Z"/></g></g></g></svg>