<svg xmlns="http://www.w3.org/2000/svg" viewBox="0 0 24 24"><defs><style>.cls-1,.cls-2{fill:none;}.cls-2{stroke:#000;stroke-linecap:round;stroke-linejoin:round;stroke-width:2px;}</style></defs><title>keyboard</title><g id="_09" data-name="09"><g id="keyboard"><rect id="artboard_guide" data-name="artboard guide" class="cls-1" width="24" height="24"/></g></g><g id="_06" data-name="06"><g id="location"><g id="artwork-30" data-name="artwork"><rect class="cls-2" x="2" y="5" width="20" height="14" rx="2"/><path d="M6,8A1,1,0,1,0,7,9,1,1,0,0,0,6,8Z"/><path d="M9,8a1,1,0,1,0,1,1A1,1,0,0,0,9,8Z"/><path d="M12,8a1,1,0,1,0,1,1,1,1,0,0,0-1-1Z"/><path d="M15,8a1,1,0,1,0,1,1,1,1,0,0,0-1-1Z"/><path d="M18,8a1,1,0,1,0,1,1,1,1,0,0,0-1-1Z"/><path d="M6,11a1,1,0,1,0,1,1,1,1,0,0,0-1-1Z"/><path d="M9,11a1,1,0,1,0,1,1,1,1,0,0,0-1-1Z"/><path d="M12,11a1,1,0,1,0,1,1,1,1,0,0,0-1-1Z"/><path d="M15,11a1,1,0,1,0,1,1,1,1,0,0,0-1-1Z"/><path d="M18,11a1,1,0,1,0,1,1,1,1,0,0,0-1-1Z"/><path d="M6,14a1,1,0,1,0,1,1,1,1,0,0,0-1-1Z"/><path d="M18,14a1,1,0,1,0,1,1,1,1,0,0,0-1-1Z"/><line class="cls-2" x1="9" y1="15" x2="15" y2="15"/></g></g></g></svg>