<svg xmlns="http://www.w3.org/2000/svg" viewBox="0 0 24 24"><defs><style>.cls-1,.cls-2{fill:none;}.cls-2{stroke:#000;stroke-linecap:round;stroke-linejoin:round;stroke-width:2px;}</style></defs><title>list</title><g id="_07" data-name="07"><g id="list"><g id="artboard_guide_copy_5" data-name="artboard guide copy 5"><rect class="cls-1" width="24" height="24"/></g><g id="artwork-16" data-name="artwork"><line class="cls-2" x1="19" y1="7" x2="9" y2="7"/><line class="cls-2" x1="19" y1="12" x2="9" y2="12"/><line class="cls-2" x1="19" y1="17" x2="9" y2="17"/><path d="M5,6A1,1,0,1,0,6,7,1,1,0,0,0,5,6Z"/><path d="M5,11a1,1,0,1,0,1,1,1,1,0,0,0-1-1Z"/><path d="M5,16a1,1,0,1,0,1,1,1,1,0,0,0-1-1Z"/></g></g></g></svg>