<svg xmlns="http://www.w3.org/2000/svg" viewBox="0 0 24 24"><defs><style>.cls-1{fill:none;}</style></defs><title>location</title><g id="_03" data-name="03"><g id="location-2" data-name="location"><g id="artwork-62" data-name="artwork"><path d="M12,3a5.86,5.86,0,0,1,6,5.7c0,2.06-3.13,7.11-6,11-2.87-3.89-6-8.94-6-11A5.86,5.86,0,0,1,12,3m0-2A7.85,7.85,0,0,0,4,8.7C4,13,12,23,12,23s8-10,8-14.3A7.85,7.85,0,0,0,12,1Z"/><path d="M12,7a1,1,0,1,1-1,1,1,1,0,0,1,1-1m0-2a3,3,0,1,0,3,3,3,3,0,0,0-3-3Z"/></g><rect id="artboard_guide" data-name="artboard guide" class="cls-1" width="24" height="24"/></g></g></svg>