<svg xmlns="http://www.w3.org/2000/svg" viewBox="0 0 24 24"><defs><style>.cls-1{fill:none;}</style></defs><title>password</title><g id="_05" data-name="05"><g id="password"><rect id="artboard_guide" data-name="artboard guide" class="cls-1" width="24" height="24"/><g id="artwork-37" data-name="artwork"><path d="M18,12v8H6V12H18m0-2H6a2,2,0,0,0-2,2v8a2,2,0,0,0,2,2H18a2,2,0,0,0,2-2V12a2,2,0,0,0-2-2Z"/><path d="M12,4a3,3,0,0,1,3,3v3H9V7a3,3,0,0,1,3-3m0-2A5,5,0,0,0,7,7v5H17V7a5,5,0,0,0-5-5Z"/></g></g></g></svg>