<?xml version="1.0" encoding="utf-8"?>
<!-- Generator: Adobe Illustrator 23.0.2, SVG Export Plug-In . SVG Version: 6.00 Build 0)  -->
<svg version="1.1" id="Layer_1" xmlns="http://www.w3.org/2000/svg" xmlns:xlink="http://www.w3.org/1999/xlink" x="0px" y="0px"
	 viewBox="0 0 24 24" style="enable-background:new 0 0 24 24;" xml:space="preserve">
<title>SeekIconTemplate24px_03</title>
<g>
	<path d="M9,15c2.2,0,4-1.8,4-4c0-2.2-1.8-4-4-4s-4,1.8-4,4C5,13.2,6.8,15,9,15z M9,9c1.1,0,2,0.9,2,2s-0.9,2-2,2s-2-0.9-2-2
		S7.9,9,9,9z"/>
	<path d="M12,16H6c-1.7,0-3,1.3-3,3c0,0.6,0.4,1,1,1s1-0.4,1-1c0-0.6,0.4-1,1-1h6c0.6,0,1,0.4,1,1c0,0.6,0.4,1,1,1s1-0.4,1-1
		C15,17.3,13.7,16,12,16z"/>
	<path d="M15,5c1.1,0,2,0.9,2,2s-0.9,2-2,2c-0.1,0-0.3,0-0.4,0c0.2,0.7,0.4,1.3,0.4,2c2.2,0,4-1.8,4-4c0-2.2-1.8-4-4-4
		c-1.6,0-3.1,1-3.7,2.5c0.6,0.3,1.2,0.6,1.7,1.1C13.2,5.7,14.1,5,15,5z"/>
	<path d="M18,12h-3.1c-0.1,0.7-0.4,1.4-0.7,2H18c0.6,0,1,0.4,1,1c0,0.6,0.4,1,1,1s1-0.4,1-1C21,13.3,19.7,12,18,12z"/>
</g>
</svg>
