<svg xmlns="http://www.w3.org/2000/svg" viewBox="0 0 24 24"><defs><style>.cls-1,.cls-2{fill:none;}.cls-2{stroke:#000;stroke-linecap:round;stroke-linejoin:round;stroke-width:2px;}</style></defs><title>people</title><g id="_02" data-name="02"><g id="people"><rect id="artboard_guide-2" data-name="artboard guide" class="cls-1" width="24" height="24"/><g id="artwork-73" data-name="artwork"><circle class="cls-2" cx="9" cy="11" r="3"/><path class="cls-2" d="M4,20V19a2,2,0,0,1,2-2h6a2,2,0,0,1,2,2v1"/><path d="M15,5a2,2,0,0,1,0,4,1.42,1.42,0,0,1-.36,0A6,6,0,0,1,15,11a4,4,0,1,0-3.69-5.54,6.25,6.25,0,0,1,1.74,1.12A2,2,0,0,1,15,5Z"/><path d="M18,12H14.91a6,6,0,0,1-.72,2H18a1,1,0,0,1,1,1v1a1,1,0,0,0,2,0V15A3,3,0,0,0,18,12Z"/></g></g></g></svg>