<?xml version="1.0" encoding="utf-8"?>
<!-- Generator: Adobe Illustrator 23.0.2, SVG Export Plug-In . SVG Version: 6.00 Build 0)  -->
<svg version="1.1" id="Layer_1" xmlns="http://www.w3.org/2000/svg" xmlns:xlink="http://www.w3.org/1999/xlink" x="0px" y="0px"
	 viewBox="0 0 24 24" style="enable-background:new 0 0 24 24;" xml:space="preserve">
<title>SeekIconTemplate24px_03</title>
<g>
	<path d="M8,13c2.2,0,4-1.8,4-4s-1.8-4-4-4S4,6.8,4,9S5.8,13,8,13z M8,7c1.1,0,2,0.9,2,2s-0.9,2-2,2s-2-0.9-2-2S6.9,7,8,7z"/>
	<path d="M10,14H6c-2.2,0-4,1.8-4,4c0,0.6,0.4,1,1,1s1-0.4,1-1c0-1.1,0.9-2,2-2h4c1.1,0,2,0.9,2,2c0,0.6,0.4,1,1,1c0.6,0,1-0.4,1-1
		C14,15.8,12.2,14,10,14z"/>
	<path d="M21,9h-2V7c0-0.6-0.4-1-1-1s-1,0.4-1,1v2h-2c-0.6,0-1,0.4-1,1s0.4,1,1,1h2v2c0,0.6,0.4,1,1,1s1-0.4,1-1v-2h2
		c0.6,0,1-0.4,1-1S21.6,9,21,9z"/>
</g>
</svg>
