<?xml version="1.0" encoding="utf-8"?>
<!-- Generator: Adobe Illustrator 23.0.2, SVG Export Plug-In . SVG Version: 6.00 Build 0)  -->
<svg version="1.1" id="Layer_1" xmlns="http://www.w3.org/2000/svg" xmlns:xlink="http://www.w3.org/1999/xlink" x="0px" y="0px"
	 viewBox="0 0 24 24" style="enable-background:new 0 0 24 24;" xml:space="preserve">
<title>SeekIconTemplate24px_03</title>
<path d="M21.4,15.1l-5-2c-0.4-0.1-0.8-0.1-1.1,0.2l-1.4,1.4c-1.9-1.3-3.5-2.9-4.7-4.7l1.6-2.5c0.2-0.3,0.2-0.7,0.1-1l-2-4
	C8.6,2.2,8.3,2,7.9,2H4c0,0,0,0,0,0C3.2,2,2.5,2.3,1.9,2.9C1.3,3.4,1,4.2,1,5c0,0.1,0,0.2,0,0.3C2.1,14.6,9.4,21.9,18.7,23
	c0.1,0,0.2,0,0.3,0c0.7,0,1.4-0.2,1.9-0.7c0.6-0.5,1-1.2,1.1-2c0-0.1,0-0.2,0-0.3v-3.9C22,15.7,21.8,15.3,21.4,15.1z M20,20
	c0,0,0,0.1,0,0.1c0,0.3-0.2,0.5-0.4,0.7c-0.2,0.2-0.5,0.2-0.7,0.2C10.5,20,4,13.5,3,5.1C3,5.1,3,5,3,5c0-0.3,0.1-0.5,0.3-0.7
	C3.5,4.1,3.7,4,4,4c0,0,0,0,0,0h3.3l1.5,3L7.1,9.5c-0.2,0.3-0.2,0.7,0,1.1c1.6,2.6,3.8,4.8,6.4,6.4c0.4,0.2,0.9,0.2,1.2-0.1l1.5-1.5
	l3.8,1.5V20z"/>
</svg>
