<svg xmlns="http://www.w3.org/2000/svg" viewBox="0 0 24 24"><defs><style>.cls-1,.cls-2{fill:none;}.cls-2{stroke:#000;stroke-linecap:round;stroke-linejoin:round;stroke-width:2px;}</style></defs><title>present</title><g id="_09" data-name="09"><g id="present"><rect id="artboard_guide" data-name="artboard guide" class="cls-1" width="24" height="24"/><g id="artwork-4" data-name="artwork"><path d="M18,12v7H6V12H18m2-2H4v9a2,2,0,0,0,2,2H18a2,2,0,0,0,2-2V10Z"/><path d="M19,8v2H5V8H19m0-2H5A2,2,0,0,0,3,8v4H21V8a2,2,0,0,0-2-2Z"/><line class="cls-2" x1="12" y1="20" x2="12" y2="7"/><path class="cls-2" d="M11.41,2.59C12.2,3.37,12,5,12,7A11.77,11.77,0,0,1,8.59,5.41a2,2,0,0,1,2.82-2.82Z"/><path class="cls-2" d="M12.59,2.59C11.8,3.37,12,5,12,7a11.77,11.77,0,0,0,3.41-1.59,2,2,0,0,0-2.82-2.82Z"/></g></g></g></svg>