<?xml version="1.0" encoding="utf-8"?>
<!-- Generator: Adobe Illustrator 23.0.2, SVG Export Plug-In . SVG Version: 6.00 Build 0)  -->
<svg version="1.1" id="Layer_1" xmlns="http://www.w3.org/2000/svg" xmlns:xlink="http://www.w3.org/1999/xlink" x="0px" y="0px"
	 viewBox="0 0 24 24" style="enable-background:new 0 0 24 24;" xml:space="preserve">
<title>profile</title>
<g>
	<path d="M12,14c2.8,0,5-2.2,5-5s-2.2-5-5-5S7,6.2,7,9S9.2,14,12,14z M12,6c1.7,0,3,1.3,3,3s-1.3,3-3,3s-3-1.3-3-3S10.3,6,12,6z"/>
	<path d="M15,15H9c-2.2,0-4,1.8-4,4c0,0.6,0.4,1,1,1s1-0.4,1-1c0-1.1,0.9-2,2-2h6c1.1,0,2,0.9,2,2c0,0.6,0.4,1,1,1s1-0.4,1-1
		C19,16.8,17.2,15,15,15z"/>
</g>
</svg>
