<svg xmlns="http://www.w3.org/2000/svg" viewBox="0 0 24 24"><defs><style>.cls-1,.cls-2{fill:none;}.cls-2{stroke:#000;stroke-linecap:round;stroke-linejoin:round;stroke-width:2px;}</style></defs><title>settings</title><g id="_06" data-name="06"><g id="settings"><rect id="artboard_guide" data-name="artboard guide" class="cls-1" width="24" height="24"/><g id="artwork-29" data-name="artwork"><path class="cls-2" d="M17.66,5.63l.28,0a2.84,2.84,0,0,1,2.6,4.5l-.16.22a2.82,2.82,0,0,0,0,3.36l.16.22a2.84,2.84,0,0,1-2.6,4.5l-.28,0a2.84,2.84,0,0,0-2.9,1.68l-.11.26a2.85,2.85,0,0,1-5.2,0l-.11-.26a2.86,2.86,0,0,0-2.91-1.68l-.28,0a2.84,2.84,0,0,1-2.59-4.5l.16-.22a2.85,2.85,0,0,0,0-3.36l-.16-.22A2.84,2.84,0,0,1,6.15,5.6l.28,0A2.86,2.86,0,0,0,9.34,4l.11-.26a2.85,2.85,0,0,1,5.2,0l.11.26A2.84,2.84,0,0,0,17.66,5.63Z"/><circle class="cls-2" cx="12.05" cy="12" r="3"/></g></g></g></svg>