<svg xmlns="http://www.w3.org/2000/svg" viewBox="0 0 24 24"><defs><style>.cls-1{fill:none;}.cls-2{fill:#fff;}</style></defs><title>socialYoutube</title><g id="_08" data-name="08"><g id="youtube"><rect id="artboard_guide" data-name="artboard guide" class="cls-1" width="24" height="24"/><g id="artwork-14" data-name="artwork"><path d="M21.58,7.15a2.51,2.51,0,0,0-1.77-1.77C18.25,5,12,5,12,5s-6.25,0-7.81.43A2.51,2.51,0,0,0,2.42,7.15,26.28,26.28,0,0,0,2,12a26.28,26.28,0,0,0,.42,4.85,2.51,2.51,0,0,0,1.77,1.77c1.56.43,7.81.43,7.81.43s6.25,0,7.81-.43a2.51,2.51,0,0,0,1.77-1.77A26.28,26.28,0,0,0,22,12,26.28,26.28,0,0,0,21.58,7.15Z"/><polygon class="cls-2" points="9.96 14.97 15.18 12 9.96 9.03 9.96 14.97"/></g></g></g></svg>