<svg xmlns="http://www.w3.org/2000/svg" viewBox="0 0 24 24"><defs><style>.cls-1{fill:none;}</style></defs><title>socialTwitter</title><g id="_08" data-name="08"><g id="twitter"><g id="artboard_guide_copy_6" data-name="artboard guide copy 6"><rect class="cls-1" width="24" height="24"/></g><g id="artwork-11" data-name="artwork"><path d="M9.4,17.69a8.12,8.12,0,0,0,8.18-8.17c0-.13,0-.25,0-.37A6,6,0,0,0,19,7.66a5.67,5.67,0,0,1-1.65.45,2.89,2.89,0,0,0,1.26-1.59,5.74,5.74,0,0,1-1.82.7,2.87,2.87,0,0,0-5,2,3.51,3.51,0,0,0,.07.66A8.16,8.16,0,0,1,6,6.84a2.89,2.89,0,0,0-.38,1.44,2.85,2.85,0,0,0,1.27,2.39,2.75,2.75,0,0,1-1.3-.36v0a2.86,2.86,0,0,0,2.31,2.81,2.74,2.74,0,0,1-.76.11,2.35,2.35,0,0,1-.54-.06,2.86,2.86,0,0,0,2.68,2,5.75,5.75,0,0,1-3.56,1.23,5.12,5.12,0,0,1-.69,0,8.16,8.16,0,0,0,4.4,1.29"/></g></g></g></svg>