<svg xmlns="http://www.w3.org/2000/svg" viewBox="0 0 24 24"><defs><style>.cls-1{fill:none;}</style></defs><title>socialInstagram</title><g id="_08" data-name="08"><g id="instagram"><rect id="artboard_guide" data-name="artboard guide" class="cls-1" width="24" height="24"/><g id="artwork-15" data-name="artwork"><path d="M12,5.44c2.14,0,2.39,0,3.23,0a4.33,4.33,0,0,1,1.49.27,2.67,2.67,0,0,1,1.52,1.52,4.33,4.33,0,0,1,.27,1.49c0,.84,0,1.09,0,3.23s0,2.39,0,3.23a4.33,4.33,0,0,1-.27,1.49,2.67,2.67,0,0,1-1.52,1.52,4.33,4.33,0,0,1-1.49.27c-.84,0-1.09,0-3.23,0s-2.39,0-3.23,0a4.33,4.33,0,0,1-1.49-.27,2.67,2.67,0,0,1-1.52-1.52,4.33,4.33,0,0,1-.27-1.49c0-.84,0-1.09,0-3.23s0-2.39,0-3.23a4.33,4.33,0,0,1,.27-1.49A2.67,2.67,0,0,1,7.28,5.76a4.33,4.33,0,0,1,1.49-.27c.84,0,1.09,0,3.23,0M12,4c-2.17,0-2.45,0-3.3,0a5.85,5.85,0,0,0-1.94.37A4,4,0,0,0,4.42,6.76,5.85,5.85,0,0,0,4.05,8.7C4,9.55,4,9.83,4,12s0,2.45,0,3.3a5.85,5.85,0,0,0,.37,1.94,4,4,0,0,0,2.34,2.34A5.85,5.85,0,0,0,8.7,20c.85,0,1.13.05,3.3.05s2.45,0,3.3-.05a5.85,5.85,0,0,0,1.94-.37,4,4,0,0,0,2.34-2.34A5.85,5.85,0,0,0,20,15.3c0-.85.05-1.13.05-3.3S20,9.55,20,8.7a5.85,5.85,0,0,0-.37-1.94,4,4,0,0,0-2.34-2.34,5.85,5.85,0,0,0-1.94-.37c-.85,0-1.13,0-3.3,0Z"/><path d="M12,7.89A4.11,4.11,0,1,0,16.11,12,4.11,4.11,0,0,0,12,7.89Zm0,6.78A2.67,2.67,0,1,1,14.67,12,2.68,2.68,0,0,1,12,14.67Z"/><circle cx="16.27" cy="7.73" r="0.96"/></g></g></g></svg>