<svg xmlns="http://www.w3.org/2000/svg" viewBox="0 0 24 24"><defs><style>.cls-1{fill:none;}</style></defs><title>starHalf</title><g id="_03" data-name="03"><g id="starHalf"><rect id="artboard_guide" data-name="artboard guide" class="cls-1" width="24" height="24"/><g id="artwork-57" data-name="artwork"><path class="cls-1" d="M12.46,16.87l4.39,2.3L16,14.3a1,1,0,0,1,.29-.89L19.85,10,15,9.24a1,1,0,0,1-.76-.54L12,4.26V16.75A.93.93,0,0,1,12.46,16.87Z"/><path d="M23,9a1,1,0,0,0-.81-.68l-6.39-.93L12.9,1.56a1,1,0,0,0-1.8,0L8.25,7.34l-6.39.93A1,1,0,0,0,1.3,10l4.63,4.5-1.1,6.35a1,1,0,0,0,1.46,1.05l5.71-3,5.71,3a1,1,0,0,0,1.06-.07,1,1,0,0,0,.4-1l-1.1-6.35L22.7,10A1,1,0,0,0,23,9ZM16.3,13.41a1,1,0,0,0-.29.89l.84,4.87-4.39-2.3a.93.93,0,0,0-.46-.12V4.26L14.19,8.7a1,1,0,0,0,.76.54l4.9.72Z"/></g></g></g></svg>