<svg xmlns="http://www.w3.org/2000/svg" width="24" height="24" viewBox="0 0 24 24">
  <g id="_03" data-name="03">
    <g id="thumb">
      <path d="M21.65918,9.24609A2.96755,2.96755,0,0,0,19.22559,8H14V4.91016A2.75674,2.75674,0,0,0,8.55664,4.1709L7.23633,9H5a3.00328,3.00328,0,0,0-3,3v7a3.00328,3.00328,0,0,0,3,3H16.55859a2.99629,2.99629,0,0,0,2.84571-2.05078l2.666-8A2.96688,2.96688,0,0,0,21.65918,9.24609ZM7,20H5a1.00067,1.00067,0,0,1-1-1V12a1.00067,1.00067,0,0,1,1-1H7Zm13.17383-8.68359-2.666,8A.99976.99976,0,0,1,16.55859,20H9V10.13379l1.48633-5.4375c.19043-.7041.69922-.69238.85156-.67383C11.49316,4.044,12,4.169,12.001,5L12,8.999A1.00026,1.00026,0,0,0,13,10h6.22559a1.00016,1.00016,0,0,1,.94824,1.31641Z"/>
    </g>
  </g>
</svg>
