<svg xmlns="http://www.w3.org/2000/svg" viewBox="0 0 24 24"><defs><style>.cls-1{fill:none;}</style></defs><title>thumb</title><g id="_03" data-name="03"><g id="thumb"><rect id="artboard_guide" data-name="artboard guide" class="cls-1" width="24" height="24"/><g id="artwork-59" data-name="artwork"><path d="M18.86,7l-.48,0H14V4a3,3,0,0,0-3-3C9.33,1,8.67,2.38,8.19,3.38L6.11,8.57a.3.3,0,0,0,0,.1L5.93,9H5a3,3,0,0,0-3,3v7a3,3,0,0,0,3,3H17a3,3,0,0,0,3-2.55l1.38-9A3,3,0,0,0,18.86,7ZM6,20H5a1,1,0,0,1-1-1V12a1,1,0,0,1,1-1H6Zm12-.85A1,1,0,0,1,17,20H8V9.21L9.9,4.44,10,4.25c.46-1,.66-1.25,1-1.25a1,1,0,0,1,1,1V8a1,1,0,0,0,1,1h5.55a1,1,0,0,1,.84,1.14Z"/></g></g></g></svg>