<svg xmlns="http://www.w3.org/2000/svg" width="24" height="24" viewBox="0 0 24 24">
  <title>SeekIconTemplate24px_03_outline</title>
  <g id="_07" data-name="07">
    <g id="viewOn">
      <g id="artwork-25" data-name="artwork">
        <g>
          <path d="M21.91211,11.58984a11.084,11.084,0,0,0-.94537-1.61163l.4356-.25165a1.00016,1.00016,0,0,0-1-1.73242l-.71679.41406a11.58571,11.58571,0,0,0-2.23639-1.84576l.42975-.74408a1.00016,1.00016,0,0,0-1.73243-1l-.49121.85052A10.02609,10.02609,0,0,0,13,5.05719V4a1,1,0,0,0-2,0V5.05719a10.02609,10.02609,0,0,0-2.65527.61169l-.49121-.85052a1.00016,1.00016,0,0,0-1.73243,1l.42975.74408A11.58571,11.58571,0,0,0,4.31445,8.4082l-.71679-.41406a1.00016,1.00016,0,0,0-1,1.73242l.4356.25165a11.084,11.084,0,0,0-.94537,1.61163,1.001,1.001,0,0,0,0,.82032C2.209,12.67969,5.13281,19,12,19s9.791-6.32031,9.91211-6.58984A1.001,1.001,0,0,0,21.91211,11.58984ZM12,17c-4.708,0-7.17285-3.72754-7.87695-5a11.08993,11.08993,0,0,1,1.079-1.58411.99649.99649,0,0,0,.158-.19165A8.61152,8.61152,0,0,1,12,7a8.60974,8.60974,0,0,1,6.63635,3.21948.99359.99359,0,0,0,.16309.19751A11.06414,11.06414,0,0,1,19.877,12C19.17285,13.27246,16.708,17,12,17Z"/>
          <circle cx="12" cy="12" r="2.5"/>
        </g>
      </g>
    </g>
  </g>
</svg>
