<svg xmlns="http://www.w3.org/2000/svg" width="24" height="24" viewBox="0 0 24 24">
  <title>visibilityHidden</title>
  <g id="_07" data-name="07">
    <g id="viewOff">
      <g id="artwork-26" data-name="artwork">
        <path d="M14.5,12a2.4959,2.4959,0,0,1-4.53265,1.44672L7.64746,15.7666A8.144,8.144,0,0,0,12,17c4.708,0,7.17285-3.72754,7.877-5a11.06414,11.06414,0,0,0-1.07751-1.583.99359.99359,0,0,1-.16309-.19751,9.51458,9.51458,0,0,0-3.04944-2.39233l-2.14019,2.1402A2.49218,2.49218,0,0,1,14.5,12Z" fill="none"/>
        <path d="M12,7a8.61152,8.61152,0,0,0-6.64,3.22424.99649.99649,0,0,1-.158.19165A11.08993,11.08993,0,0,0,4.12305,12a11.13295,11.13295,0,0,0,1.4483,2.01459l6.97791-6.97791C12.36584,7.02484,12.1908,7,12,7Z" fill="none"/>
        <path d="M4.12305,12a11.08993,11.08993,0,0,1,1.079-1.58411.99649.99649,0,0,0,.158-.19165A8.61152,8.61152,0,0,1,12,7c.1908,0,.36584.02484.54926.03668l1.76232-1.76233A10.159,10.159,0,0,0,13,5.05719V4a1,1,0,0,0-2,0V5.05719a10.02609,10.02609,0,0,0-2.65527.61169l-.49121-.85052a1.00016,1.00016,0,0,0-1.73243,1l.42975.74408A11.58367,11.58367,0,0,0,4.31464,8.408l-.716-.41388a1.00016,1.00016,0,0,0-1,1.73242l.43482.25135a11.07614,11.07614,0,0,0-.94556,1.61193,1.001,1.001,0,0,0,0,.82032A12.67938,12.67938,0,0,0,4.16,15.426l1.41138-1.41137A11.13295,11.13295,0,0,1,4.12305,12Z"/>
        <path d="M21.91211,11.58984a11.084,11.084,0,0,0-.94537-1.61163l.4356-.25165a1.00016,1.00016,0,0,0-1-1.73242l-.71679.41406a11.79968,11.79968,0,0,0-1.41724-1.26245L20.707,4.707A.99989.99989,0,0,0,19.293,3.293l-16,16A.99989.99989,0,1,0,4.707,20.707l2.76074-2.76074A10.02291,10.02291,0,0,0,12,19c6.86719,0,9.791-6.32031,9.91211-6.58984A1.001,1.001,0,0,0,21.91211,11.58984ZM12,17a8.0971,8.0971,0,0,1-3.00751-.57843l2.10871-2.1087A2.43991,2.43991,0,0,0,12,14.5,2.5,2.5,0,0,0,14.5,12a2.43991,2.43991,0,0,0-.18713-.8988l2.52-2.52a9.95581,9.95581,0,0,1,1.80353,1.63824.99359.99359,0,0,0,.16309.19751A11.06414,11.06414,0,0,1,19.877,12C19.17285,13.27246,16.708,17,12,17Z"/>
      </g>
    </g>
  </g>
</svg>
