<svg fill="none" xmlns="http://www.w3.org/2000/svg" viewBox="149.75 488.75 34 40.3"> <path d="M153.528 488.75C151.441 488.75 149.75 490.441 149.75 492.528V525.272C149.75 527.359 151.441 529.05 153.528 529.05H183.12C183.468 529.05 183.75 528.768 183.75 528.42C183.75 528.111 183.523 527.866 183.229 527.813L183.248 527.803C183.248 527.803 181.231 527.039 181.231 524.386C181.231 521.553 182.537 520.488 182.537 520.488H182.52C183.271 519.797 183.75 518.816 183.75 517.716V492.528C183.75 490.441 182.059 488.75 179.972 488.75H153.528ZM156.046 490.009H179.972C181.364 490.009 182.491 491.137 182.491 492.528V517.716C182.491 519.107 181.364 520.234 179.972 520.234H156.046V490.009ZM180.599 521.43C180.281 522.052 179.972 523.007 179.972 524.386C179.972 526.073 180.705 527.17 181.3 527.791H154.337C152.69 527.791 151.19 526.605 151.026 524.967C150.838 523.082 152.311 521.494 154.157 521.494H179.972C180.187 521.494 180.395 521.464 180.599 521.43Z" fill="white"/> <g clip-path="url(#clip0_11_20)"> <path d="M170.787 503.455C170.419 503.455 170.052 503.299 169.789 502.992L167.308 500.104C165.852 498.48 164.381 498.495 164.37 498.499C164.344 498.501 164.318 498.502 164.292 498.502H162.422V502.08C162.422 502.84 161.825 503.455 161.088 503.455C160.352 503.455 159.755 502.84 159.755 502.08V497.126C159.755 496.367 160.352 495.751 161.088 495.751H164.265C164.721 495.736 167.067 495.785 169.285 498.259L171.784 501.169C172.272 501.737 172.222 502.606 171.671 503.11C171.417 503.341 171.101 503.455 170.787 503.455Z" fill="white"/> <path d="M172.572 508.515C172.203 508.515 171.837 508.359 171.574 508.052C171.086 507.484 171.136 506.614 171.687 506.111L174.487 503.552C176.056 502.056 176.043 500.561 176.042 500.498C176.04 500.471 176.041 500.468 176.041 500.441V498.512H172.571C171.835 498.512 171.238 497.896 171.238 497.137C171.238 496.378 171.835 495.762 172.571 495.762H177.374C178.11 495.762 178.707 496.378 178.707 497.137V500.414C178.722 500.877 178.674 503.304 176.276 505.591L173.455 508.169C173.202 508.401 172.886 508.515 172.572 508.515Z" fill="white"/> <path d="M174.142 514.75C173.52 514.75 171.309 514.573 169.219 512.242L166.719 509.333C166.231 508.764 166.282 507.895 166.833 507.392C167.384 506.888 168.227 506.94 168.715 507.509L171.195 510.396C172.648 512.017 174.104 512.008 174.157 512C174.183 511.998 174.187 511.998 174.212 511.999H176.082V508.421C176.082 507.661 176.679 507.046 177.415 507.046C178.152 507.046 178.748 507.661 178.748 508.421V513.374C178.748 514.134 178.152 514.749 177.415 514.749H174.238C174.212 514.75 174.18 514.75 174.142 514.75Z" fill="white"/> <path d="M165.886 514.75H161.084C160.347 514.75 159.751 514.135 159.751 513.375V510.099C159.736 509.635 159.784 507.208 162.182 504.922L165.002 502.343C165.553 501.839 166.396 501.892 166.884 502.461C167.372 503.029 167.322 503.898 166.77 504.402L163.971 506.96C162.402 508.457 162.415 509.952 162.416 510.015C162.418 510.041 162.417 510.044 162.417 510.071V512H165.886C166.623 512 167.219 512.616 167.219 513.375C167.219 514.135 166.623 514.75 165.886 514.75Z" fill="white"/> </g> <defs> <clipPath id="clip0_11_20"> <rect width="19" height="19" fill="white" transform="translate(159.75 495.75)"/> </clipPath> </defs> </svg>