<svg fill="none" xmlns="http://www.w3.org/2000/svg" viewBox="150 489 34 40.3"> <path d="M153.778 489C151.691 489 150 490.691 150 492.778V525.522C150 527.609 151.691 529.3 153.778 529.3H183.37C183.718 529.3 184 529.018 184 528.67C184 528.361 183.773 528.116 183.479 528.063L183.498 528.053C183.498 528.053 181.481 527.289 181.481 524.636C181.481 521.803 182.787 520.738 182.787 520.738H182.77C183.521 520.047 184 519.066 184 517.966V492.778C184 490.691 182.309 489 180.222 489H153.778ZM156.296 490.259H180.222C181.614 490.259 182.741 491.387 182.741 492.778V517.966C182.741 519.357 181.614 520.484 180.222 520.484H156.296V490.259ZM180.849 521.68C180.531 522.302 180.222 523.257 180.222 524.636C180.222 526.323 180.955 527.42 181.55 528.041H154.587C152.94 528.041 151.44 526.855 151.276 525.217C151.088 523.332 152.561 521.744 154.407 521.744H180.222C180.437 521.744 180.645 521.714 180.849 521.68Z" fill="black"/> <g clip-path="url(#clip0_11_20)"> <path d="M171.037 503.705C170.669 503.705 170.302 503.549 170.039 503.242L167.558 500.354C166.102 498.73 164.631 498.745 164.62 498.749C164.594 498.751 164.568 498.752 164.542 498.752H162.672V502.33C162.672 503.09 162.075 503.705 161.338 503.705C160.602 503.705 160.005 503.09 160.005 502.33V497.376C160.005 496.617 160.602 496.001 161.338 496.001H164.515C164.971 495.986 167.317 496.035 169.535 498.509L172.034 501.419C172.522 501.987 172.472 502.856 171.921 503.36C171.667 503.591 171.351 503.705 171.037 503.705Z" fill="black"/> <path d="M172.822 508.765C172.453 508.765 172.087 508.609 171.824 508.302C171.336 507.734 171.386 506.864 171.937 506.361L174.737 503.802C176.306 502.306 176.293 500.811 176.292 500.748C176.29 500.721 176.291 500.718 176.291 500.691V498.762H172.821C172.085 498.762 171.488 498.146 171.488 497.387C171.488 496.628 172.085 496.012 172.821 496.012H177.624C178.36 496.012 178.957 496.628 178.957 497.387V500.664C178.972 501.127 178.924 503.554 176.526 505.841L173.705 508.419C173.452 508.651 173.136 508.765 172.822 508.765Z" fill="black"/> <path d="M174.392 515C173.77 515 171.559 514.823 169.469 512.492L166.969 509.583C166.481 509.014 166.532 508.145 167.083 507.642C167.634 507.138 168.477 507.19 168.965 507.759L171.445 510.646C172.898 512.267 174.354 512.258 174.407 512.25C174.433 512.248 174.437 512.248 174.462 512.249H176.332V508.671C176.332 507.911 176.929 507.296 177.665 507.296C178.402 507.296 178.998 507.911 178.998 508.671V513.624C178.998 514.384 178.402 514.999 177.665 514.999H174.488C174.462 515 174.43 515 174.392 515Z" fill="black"/> <path d="M166.136 515H161.334C160.597 515 160.001 514.385 160.001 513.625V510.349C159.986 509.885 160.034 507.458 162.432 505.172L165.252 502.593C165.803 502.089 166.646 502.142 167.134 502.711C167.622 503.279 167.572 504.148 167.02 504.652L164.221 507.21C162.652 508.707 162.665 510.202 162.666 510.265C162.668 510.291 162.667 510.294 162.667 510.321V512.25H166.136C166.873 512.25 167.469 512.866 167.469 513.625C167.469 514.385 166.873 515 166.136 515Z" fill="black"/> </g> <defs> <clipPath id="clip0_11_20"> <rect width="19" height="19" fill="white" transform="translate(160 496)"/> </clipPath> </defs> </svg>